<?xml version="1.0" standalone="no"?>
<!DOCTYPE svg PUBLIC "-//W3C//DTD SVG 20010904//EN"
 "http://www.w3.org/TR/2001/REC-SVG-20010904/DTD/svg10.dtd">
<svg version="1.0" xmlns="http://www.w3.org/2000/svg"
 width="1000.000000pt" height="1000.000000pt" viewBox="0 0 1000.000000 1000.000000"
 preserveAspectRatio="xMidYMid meet">
<metadata>
Created by potrace 1.15, written by Peter Selinger 2001-2017
</metadata>
<g transform="translate(0.000000,1000.000000) scale(0.100000,-0.100000)"
fill="#000000" stroke="none">
<path d="M0 5000 l0 -5000 5000 0 5000 0 0 5000 0 5000 -5000 0 -5000 0 0
-5000z m7760 3360 c226 -12 549 -38 562 -46 4 -3 8 -297 8 -655 l0 -649 -397
0 c-219 0 -447 -5 -508 -10 -269 -24 -437 -117 -516 -285 -64 -136 -63 -124
-67 -762 l-3 -583 720 0 721 0 -6 -27 c-4 -23 -184 -1421 -184 -1430 0 -2
-281 -3 -625 -3 l-625 0 -2 -1868 -3 -1867 -757 -3 -758 -2 0 1870 0 1870
-625 0 -625 0 0 730 0 730 624 0 624 0 5 643 c5 668 8 734 52 953 35 174 85
318 165 479 87 174 177 300 301 424 258 257 626 432 1014 480 50 6 101 13 115
15 57 8 609 5 790 -4z"/>
</g>
</svg>
