<?xml version="1.0" standalone="no"?>
<!DOCTYPE svg PUBLIC "-//W3C//DTD SVG 20010904//EN"
 "http://www.w3.org/TR/2001/REC-SVG-20010904/DTD/svg10.dtd">
<svg version="1.0" xmlns="http://www.w3.org/2000/svg"
 width="225.000000pt" height="225.000000pt" viewBox="0 0 225.000000 225.000000"
 preserveAspectRatio="xMidYMid meet">
<metadata>
Created by potrace 1.15, written by Peter Selinger 2001-2017
</metadata>
<g transform="translate(0.000000,225.000000) scale(0.100000,-0.100000)"
fill="#000000" stroke="none">
<path d="M160 2207 c-47 -15 -103 -74 -118 -123 -17 -59 -17 -1859 0 -1918 16
-52 72 -108 124 -124 57 -17 1865 -18 1915 0 57 19 90 49 115 102 l24 51 0
930 0 930 -24 51 c-25 53 -58 83 -115 102 -47 16 -1870 15 -1921 -1z m465
-246 c120 -54 169 -200 108 -322 -63 -124 -220 -166 -334 -89 -112 74 -140
216 -66 327 61 91 193 129 292 84z m1078 -543 c104 -22 200 -114 243 -232 36
-101 44 -197 44 -551 0 -290 -2 -336 -16 -349 -13 -13 -42 -16 -167 -16 -84 0
-159 5 -167 10 -13 8 -16 61 -20 347 l-5 338 -30 59 c-36 72 -74 96 -153 96
-65 0 -117 -26 -151 -76 -45 -65 -51 -116 -51 -438 0 -265 -2 -302 -17 -318
-14 -16 -33 -18 -164 -18 -121 0 -150 3 -163 16 -14 14 -16 78 -16 559 l0 544
22 15 c18 13 52 16 158 16 167 0 180 -6 180 -82 l0 -51 50 47 c65 61 126 87
220 95 83 8 131 5 203 -11z m-1013 -18 c20 -20 20 -33 20 -555 0 -522 0 -535
-20 -555 -18 -18 -33 -20 -162 -20 -118 0 -145 3 -160 17 -17 15 -18 46 -18
559 l0 543 22 15 c18 13 52 16 160 16 125 0 140 -2 158 -20z"/>
</g>
</svg>
